HIERARCHY
ROOT RootJoint
{
    OFFSET   0.000000   0.000000   0.000000
    CHANNELS 6 Xposition Yposition Zposition Xrotation Yrotation Zrotation
    JOINT pelvis_lowerback
    {
        OFFSET   0.000000   0.093605   0.000000
        CHANNELS 3 Xrotation Yrotation Zrotation
        JOINT lowerback_torso
        {
            OFFSET   0.000000   0.100000   0.000000
            CHANNELS 3 Xrotation Yrotation Zrotation
            JOINT torso_head
            {
                OFFSET   0.000000   0.282350   0.000000
                CHANNELS 3 Xrotation Yrotation Zrotation
                End Site
                {
                    OFFSET   0.000000   0.192650   0.000000
                }
            }
            JOINT rTorso_Clavicle
            {
                OFFSET  -0.001000   0.157500   0.000000
                CHANNELS 3 Xrotation Yrotation Zrotation
                JOINT rShoulder
                {
                    OFFSET  -0.117647   0.000000   0.000000
                    CHANNELS 3 Xrotation Yrotation Zrotation
                    JOINT rElbow
                    {
                        OFFSET  -0.245000   0.000000   0.000000
                        CHANNELS 3 Xrotation Yrotation Zrotation
                        JOINT rWrist
                        {
                            OFFSET  -0.240000   0.000000   0.000000
                            CHANNELS 3 Xrotation Yrotation Zrotation
                            End Site
                            {
                                OFFSET  -0.116353  -0.002500   0.000000
                            }
                        }
                    }
                }
            }
            JOINT lTorso_Clavicle
            {
                OFFSET   0.001000   0.157500   0.000000
                CHANNELS 3 Xrotation Yrotation Zrotation
                JOINT lShoulder
                {
                    OFFSET   0.117647   0.000000   0.000000
                    CHANNELS 3 Xrotation Yrotation Zrotation
                    JOINT lElbow
                    {
                        OFFSET   0.245000   0.000000   0.000000
                        CHANNELS 3 Xrotation Yrotation Zrotation
                        JOINT lWrist
                        {
                            OFFSET   0.240000   0.000000   0.000000
                            CHANNELS 3 Xrotation Yrotation Zrotation
                            End Site
                            {
                                OFFSET   0.116353  -0.002500   0.000000
                            }
                        }
                    }
                }
            }
        }
    }
    JOINT rHip
    {
        OFFSET  -0.100000  -0.051395   0.000000
        CHANNELS 3 Xrotation Yrotation Zrotation
        JOINT rKnee
        {
            OFFSET   0.000000  -0.410000   0.000000
            CHANNELS 3 Xrotation Yrotation Zrotation
            JOINT rAnkle
            {
                OFFSET   0.000000  -0.390000   0.000000
                CHANNELS 3 Xrotation Yrotation Zrotation
                JOINT rToeJoint
                {
                    OFFSET   0.000000  -0.050000   0.130000
                    CHANNELS 3 Xrotation Yrotation Zrotation
                    End Site
                    {
                        OFFSET  -0.010000   0.002000   0.060000
                    }
                }
            }
        }
    }
    JOINT lHip
    {
        OFFSET   0.100000  -0.051395   0.000000
        CHANNELS 3 Xrotation Yrotation Zrotation
        JOINT lKnee
        {
            OFFSET   0.000000  -0.410000   0.000000
            CHANNELS 3 Xrotation Yrotation Zrotation
            JOINT lAnkle
            {
                OFFSET   0.000000  -0.390000   0.000000
                CHANNELS 3 Xrotation Yrotation Zrotation
                JOINT lToeJoint
                {
                    OFFSET   0.000000  -0.050000   0.130000
                    CHANNELS 3 Xrotation Yrotation Zrotation
                    End Site
                    {
                        OFFSET   0.010000   0.002000   0.060000
                    }
                }
            }
        }
    }
}
MOTION
Frames: 10
Frame Time:   0.008333
 -2.376719   0.925631   3.975860   0.000000   0.000000   0.000000   0.000000   0.000000   0.000000   0.000000   0.000000   0.000000   0.000000   0.000000   0.000000   0.000000   0.000000   0.000000   0.000000   0.000000   0.000000   0.000000   0.000000   0.000000   0.000000   0.000000   0.000000   0.000000   0.000000   0.000000   0.000000   0.000000   0.000000   0.000000   0.000000   0.000000   0.000000   0.000000   0.000000   0.000000   0.000000   0.000000   0.000000   0.000000   0.000000   0.000000   0.000000   0.000000   0.000000   0.000000   0.000000   0.000000   0.000000   0.000000   0.000000   0.000000   0.000000   0.000000   0.000000   0.000000   0.000000   0.000000   0.000000
 -2.376384   0.924923   3.973451  -0.742235  -0.052216   0.102777   1.618392   0.002593  -0.083190  -0.372322  -0.139751   0.033735  -0.034730  -0.288797   0.087702  -0.579516  -0.004856   0.248305  -1.561766   0.223177  -0.081002   0.003909   2.511154   0.035828   0.032882  -1.499520  -0.611041  -0.383549   0.446339  -0.030027  -0.111224   0.113632  -0.550820   0.016225  -3.521299   0.000712  -0.015476   1.439246   0.697503  -0.566297  -0.678008  -0.504663   3.434338   0.011142  -0.022394  -2.535261   0.053580   0.410495  -0.044682  -0.000000   0.000262  -0.501245   0.520405   0.196221   3.391680  -0.008269   0.014176  -2.673255   0.384210  -0.085423   0.160198  -0.000302   0.001185
 -2.375932   0.923615   3.970599  -1.720380  -0.132376   0.217532   3.333975   0.008703  -0.150098  -0.489823  -0.257810   0.064492   0.003413  -0.577128   0.186855  -1.138057   0.227175   0.577161  -3.034203   0.664196  -0.083493   0.008329   5.001069   0.059424   0.010894  -2.094678  -1.168277  -0.741242   0.686495  -0.214321  -0.220140   0.023821  -1.193544   0.037433  -7.194097   0.006178  -0.031411   1.822433   1.218261  -1.083505  -1.361038  -1.350240   7.237725   0.028331  -0.046730  -4.890425   0.072706   0.790796  -0.123101  -0.000222   0.000734  -0.913873   1.052819   0.675085   7.158131  -0.023150   0.028757  -5.158558   0.762810  -0.143686   0.252583  -0.000654   0.001627
 -2.375443   0.921588   3.967573  -2.760111  -0.210373   0.329250   5.016761   0.017253  -0.204158  -0.505769  -0.359133   0.091185   0.055122  -0.847728   0.286336  -1.661412   0.614233   0.952296  -4.408468   1.213262  -0.024635   0.012294   7.384850   0.074329  -0.007788  -2.245717  -1.609017  -1.073208   0.751949  -0.485010  -0.325630  -0.187941  -1.868651   0.059322 -10.922760   0.012210  -0.039967   1.758562   1.565525  -1.604026  -2.004938  -2.454374  11.076567   0.046835  -0.069640  -7.083581   0.069284   1.142511  -0.175312  -0.000438   0.000952  -1.304987   1.559068   1.407442  10.971618  -0.041017   0.043690  -7.472242   1.124280  -0.180170   0.355636  -0.001206   0.002058
 -2.374956   0.918767   3.964534  -3.815646  -0.271325   0.434944   6.641413   0.024595  -0.251655  -0.473974  -0.450903   0.113779   0.104534  -1.100374   0.382853  -2.152868   1.091368   1.350536  -5.691318   1.814434   0.079680   0.015318   9.646378   0.083245  -0.021206  -2.157113  -1.953675  -1.383240   0.698461  -0.800316  -0.428488  -0.474230  -2.546638   0.079730 -14.686373   0.017553  -0.043409   1.466074   1.789383  -2.140362  -2.597934  -3.757840  14.903494   0.064324  -0.090988  -9.130116   0.049260   1.467496  -0.220082  -0.000648   0.001085  -1.695400   2.029840   2.352170  14.782104  -0.059292   0.059874  -9.630723   1.467155  -0.198702   0.453634  -0.001784   0.002387
 -2.374491   0.915101   3.961609  -4.865889  -0.309459   0.534024   8.191408   0.028897  -0.295792  -0.416999  -0.536846   0.132040   0.149524  -1.336096   0.475017  -2.614872   1.613630   1.756081  -6.889204   2.432492   0.216279   0.017194  11.780730   0.087995  -0.029880  -1.929351  -2.226975  -1.673836   0.569174  -1.135995  -0.528899  -0.802180  -3.211138   0.097570 -18.473027   0.021663  -0.043318   1.042724   1.928152  -2.673606  -3.134230  -5.211770  18.638217   0.078983  -0.110160 -11.039355   0.016857   1.767499  -0.258531  -0.000821   0.001153  -2.092338   2.458279   3.469425  18.580533  -0.076126   0.077466 -11.645415   1.790836  -0.202439   0.544547  -0.002312   0.002626
 -2.374057   0.910569   3.958884  -5.891157  -0.339432   0.625836   9.652197   0.028804  -0.337770  -0.351351  -0.621725   0.145513   0.189856  -1.555254   0.561615  -3.049519   2.158449   2.159024  -8.008099   3.050286   0.375702   0.017919  13.789856   0.089890  -0.034385  -1.613591  -2.447903  -1.947853   0.380520  -1.478874  -0.627738  -1.165075  -3.854078   0.110246 -22.041047   0.023840  -0.037456   0.450275   2.006600  -3.178277  -3.612205  -6.772998  22.145367   0.089170  -0.126120 -12.819642  -0.024603   2.044456  -0.291184  -0.000943   0.001173  -2.500450   2.840025   4.722381  22.363642  -0.090388   0.095622 -13.526282   2.095246  -0.193791   0.628881  -0.002756   0.002786
 -2.373609   0.904970   3.955539  -6.303095  -0.674811   0.644199  10.766806   0.122577  -0.375215  -0.651279  -0.574526   0.211338   0.086898  -1.846059   0.670169  -3.522036   2.624828   2.436316  -9.019402   3.820889   0.507720   0.014790  15.414518   0.088412  -0.029458  -1.123784  -2.377502  -2.170302   0.363376  -1.611018  -0.712328  -1.466067  -4.597160   0.117741 -25.840602   0.024846  -0.077160  -0.053358   1.850458  -4.730029  -4.006396  -8.443301  25.876027   0.096284  -0.155805 -13.763235  -0.112339   2.538836  -0.430859  -0.001819   0.002580  -3.368732   3.345618   6.223600  25.584592  -0.100708   0.105184 -15.421631   2.583614  -0.363037   0.796195  -0.003937   0.003721
 -2.373127   0.898403   3.952248  -6.654138  -1.031539   0.639911  11.844709   0.191515  -0.399887  -0.963666  -0.526669   0.287774  -0.032859  -2.122792   0.777479  -3.971355   3.079686   2.640747  -9.968646   4.552879   0.604029   0.010717  16.929755   0.084991  -0.028368  -0.677772  -2.342406  -2.381033   0.343323  -1.682185  -0.797037  -1.754703  -5.258618   0.118140 -29.402043   0.026604  -0.115301  -0.655046   1.701428  -6.379077  -4.309567 -10.211282  29.323798   0.098630  -0.178992 -14.633795  -0.206743   2.997343  -0.503167  -0.002066   0.002966  -4.170042   3.768708   7.862921  28.519730  -0.108217   0.111743 -17.196271   3.048124  -0.502474   0.930971  -0.004699   0.004126
 -2.372613   0.890908   3.949126  -6.986473  -1.368277   0.628404  12.877402   0.233407  -0.417573  -1.243774  -0.499536   0.365324  -0.143350  -2.382178   0.879140  -4.395697   3.507349   2.796297 -10.858514   5.240823   0.677736   0.006577  18.345732   0.080315  -0.025745  -0.249736  -2.365641  -2.582949   0.308107  -1.710333  -0.883372  -2.034938  -5.848189   0.114486 -32.731200   0.028654  -0.149518  -1.267570   1.608195  -8.033991  -4.509335 -12.047588  32.496348   0.097574  -0.194373 -15.447651  -0.304117   3.421967  -0.572862  -0.002278   0.003250  -4.889490   4.117662   9.586202  31.251471  -0.112890   0.117048 -18.853271   3.486695  -0.617117   1.052937  -0.005260   0.004332
